<mxfile host="app.diagrams.net" agent="Mozilla/5.0 (Macintosh; Intel Mac OS X 10_15_7) AppleWebKit/537.36 (KHTML, like Gecko) Chrome/129.0.0.0 Safari/537.36" version="24.7.17">
  <diagram name="第 1 页" id="JO-shfudhJepJnUqwN1Y">
    <mxGraphModel dx="2074" dy="1145" grid="1" gridSize="10" guides="1" tooltips="1" connect="1" arrows="1" fold="1" page="1" pageScale="1" pageWidth="827" pageHeight="1169" math="0" shadow="0">
      <root>
        <mxCell id="0" />
        <mxCell id="1" parent="0" />
        <mxCell id="fh_mZoaNWu5ApxOv-ETk-27" value="" style="rounded=0;whiteSpace=wrap;html=1;dashed=1;dashPattern=8 8;fontSize=10;" parent="1" vertex="1">
          <mxGeometry x="147.5" y="590" width="627.5" height="140" as="geometry" />
        </mxCell>
        <mxCell id="zsk7sPBB4T1c9OZ2XZUw-45" value="核心域" style="rounded=0;whiteSpace=wrap;html=1;dashed=1;dashPattern=8 8;fontSize=10;verticalAlign=top;" parent="1" vertex="1">
          <mxGeometry x="159.38" y="600" width="280" height="120" as="geometry" />
        </mxCell>
        <mxCell id="fh_mZoaNWu5ApxOv-ETk-5" value="" style="rounded=0;whiteSpace=wrap;html=1;dashed=1;dashPattern=12 12;fontSize=10;" parent="1" vertex="1">
          <mxGeometry x="146.88" y="760" width="633.12" height="80" as="geometry" />
        </mxCell>
        <mxCell id="fh_mZoaNWu5ApxOv-ETk-6" value="基础设施层" style="text;html=1;align=left;verticalAlign=middle;resizable=0;points=[];autosize=1;strokeColor=none;fillColor=none;fontSize=10;" parent="1" vertex="1">
          <mxGeometry x="146.88" y="730" width="70" height="30" as="geometry" />
        </mxCell>
        <mxCell id="fh_mZoaNWu5ApxOv-ETk-13" value="Holo" style="rounded=0;whiteSpace=wrap;html=1;fontSize=10;" parent="1" vertex="1">
          <mxGeometry x="164.76" y="790" width="52.12" height="30" as="geometry" />
        </mxCell>
        <mxCell id="fh_mZoaNWu5ApxOv-ETk-14" value="QuickBi" style="rounded=0;whiteSpace=wrap;html=1;fontSize=10;" parent="1" vertex="1">
          <mxGeometry x="228.51" y="790" width="53.74" height="30" as="geometry" />
        </mxCell>
        <mxCell id="fh_mZoaNWu5ApxOv-ETk-21" value="" style="rounded=0;whiteSpace=wrap;html=1;dashed=1;dashPattern=8 8;fontSize=10;" parent="1" vertex="1">
          <mxGeometry x="149.38" y="270" width="628.75" height="100" as="geometry" />
        </mxCell>
        <mxCell id="fh_mZoaNWu5ApxOv-ETk-22" value="展现层" style="text;html=1;align=left;verticalAlign=middle;resizable=0;points=[];autosize=1;strokeColor=none;fillColor=none;fontSize=10;" parent="1" vertex="1">
          <mxGeometry x="149.38" y="240" width="50" height="30" as="geometry" />
        </mxCell>
        <mxCell id="fh_mZoaNWu5ApxOv-ETk-23" value="应用层" style="text;html=1;align=left;verticalAlign=middle;resizable=0;points=[];autosize=1;strokeColor=none;fillColor=none;fontSize=10;" parent="1" vertex="1">
          <mxGeometry x="142.5" y="370" width="50" height="30" as="geometry" />
        </mxCell>
        <mxCell id="fh_mZoaNWu5ApxOv-ETk-24" value="" style="rounded=0;whiteSpace=wrap;html=1;dashed=1;dashPattern=8 8;fontSize=10;" parent="1" vertex="1">
          <mxGeometry x="149.38" y="400" width="627.5" height="120" as="geometry" />
        </mxCell>
        <mxCell id="fh_mZoaNWu5ApxOv-ETk-28" value="领域层" style="text;html=1;align=left;verticalAlign=middle;resizable=0;points=[];autosize=1;strokeColor=none;fillColor=none;fontSize=10;" parent="1" vertex="1">
          <mxGeometry x="146.88" y="560" width="50" height="30" as="geometry" />
        </mxCell>
        <mxCell id="fh_mZoaNWu5ApxOv-ETk-29" value="门店" style="rounded=0;whiteSpace=wrap;html=1;fontSize=10;" parent="1" vertex="1">
          <mxGeometry x="179.38" y="621.5" width="51.25" height="35" as="geometry" />
        </mxCell>
        <mxCell id="fh_mZoaNWu5ApxOv-ETk-31" value="销售商机" style="rounded=0;whiteSpace=wrap;html=1;fontSize=10;" parent="1" vertex="1">
          <mxGeometry x="651.26" y="410" width="68.74" height="30" as="geometry" />
        </mxCell>
        <mxCell id="fh_mZoaNWu5ApxOv-ETk-43" value="企拍" style="rounded=0;whiteSpace=wrap;html=1;fontSize=10;" parent="1" vertex="1">
          <mxGeometry x="240.01" y="621.5" width="51.25" height="35" as="geometry" />
        </mxCell>
        <mxCell id="38tHG7mgrFKPqY9CcExU-8" value="RS管理后台" style="rounded=0;whiteSpace=wrap;html=1;fontSize=10;" parent="1" vertex="1">
          <mxGeometry x="168.75" y="305" width="70" height="30" as="geometry" />
        </mxCell>
        <mxCell id="38tHG7mgrFKPqY9CcExU-10" value="门店入驻" style="rounded=0;whiteSpace=wrap;html=1;fontSize=10;" parent="1" vertex="1">
          <mxGeometry x="172.5" y="410" width="60" height="40" as="geometry" />
        </mxCell>
        <mxCell id="38tHG7mgrFKPqY9CcExU-11" value="" style="rounded=0;whiteSpace=wrap;html=1;fontSize=10;" parent="1" vertex="1">
          <mxGeometry x="546.26" y="410" width="53.74" height="30" as="geometry" />
        </mxCell>
        <mxCell id="38tHG7mgrFKPqY9CcExU-21" value="订单执行" style="rounded=0;whiteSpace=wrap;html=1;fontSize=10;" parent="1" vertex="1">
          <mxGeometry x="477.5" y="445" width="62.5" height="25" as="geometry" />
        </mxCell>
        <mxCell id="38tHG7mgrFKPqY9CcExU-24" value="业绩分析" style="rounded=0;whiteSpace=wrap;html=1;fontSize=10;" parent="1" vertex="1">
          <mxGeometry x="650" y="475" width="70" height="30" as="geometry" />
        </mxCell>
        <mxCell id="38tHG7mgrFKPqY9CcExU-34" value="锐锢销售APP" style="rounded=0;whiteSpace=wrap;html=1;fontSize=10;" parent="1" vertex="1">
          <mxGeometry x="511.25" y="302.5" width="77.5" height="35" as="geometry" />
        </mxCell>
        <mxCell id="zsk7sPBB4T1c9OZ2XZUw-24" value="锐销宝APP" style="rounded=0;whiteSpace=wrap;html=1;fontSize=10;" parent="1" vertex="1">
          <mxGeometry x="639.75" y="302.5" width="77.5" height="35" as="geometry" />
        </mxCell>
        <mxCell id="zsk7sPBB4T1c9OZ2XZUw-25" value="中台" style="rounded=0;whiteSpace=wrap;html=1;fontSize=10;" parent="1" vertex="1">
          <mxGeometry x="400" y="302.5" width="77.5" height="35" as="geometry" />
        </mxCell>
        <mxCell id="zsk7sPBB4T1c9OZ2XZUw-26" value="锐销宝后台" style="rounded=0;whiteSpace=wrap;html=1;fontSize=10;" parent="1" vertex="1">
          <mxGeometry x="282.25" y="302.5" width="77.5" height="35" as="geometry" />
        </mxCell>
        <mxCell id="zsk7sPBB4T1c9OZ2XZUw-27" value="销售拜访" style="rounded=0;whiteSpace=wrap;html=1;fontSize=10;" parent="1" vertex="1">
          <mxGeometry x="242.5" y="410" width="85" height="40" as="geometry" />
        </mxCell>
        <mxCell id="zsk7sPBB4T1c9OZ2XZUw-28" value="售后服务&lt;br&gt;客户维护" style="rounded=0;whiteSpace=wrap;html=1;fontSize=10;" parent="1" vertex="1">
          <mxGeometry x="477.5" y="475" width="62.5" height="35" as="geometry" />
        </mxCell>
        <mxCell id="zsk7sPBB4T1c9OZ2XZUw-31" value="佣金结算" style="rounded=0;whiteSpace=wrap;html=1;fontSize=10;" parent="1" vertex="1">
          <mxGeometry x="242.5" y="465" width="85" height="40" as="geometry" />
        </mxCell>
        <mxCell id="zsk7sPBB4T1c9OZ2XZUw-32" value="企拍入驻" style="rounded=0;whiteSpace=wrap;html=1;fontSize=10;" parent="1" vertex="1">
          <mxGeometry x="172.5" y="465" width="60" height="40" as="geometry" />
        </mxCell>
        <mxCell id="zsk7sPBB4T1c9OZ2XZUw-33" value="目标管理&amp;amp;透传" style="rounded=0;whiteSpace=wrap;html=1;fontSize=10;" parent="1" vertex="1">
          <mxGeometry x="338.75" y="410" width="85" height="40" as="geometry" />
        </mxCell>
        <mxCell id="zsk7sPBB4T1c9OZ2XZUw-34" value="数据分析&amp;amp;报表" style="rounded=0;whiteSpace=wrap;html=1;fontSize=10;" parent="1" vertex="1">
          <mxGeometry x="651.26" y="445" width="68.74" height="25" as="geometry" />
        </mxCell>
        <mxCell id="zsk7sPBB4T1c9OZ2XZUw-38" value="销售" style="rounded=0;whiteSpace=wrap;html=1;fontSize=10;" parent="1" vertex="1">
          <mxGeometry x="305.63" y="621.5" width="51.25" height="35" as="geometry" />
        </mxCell>
        <mxCell id="zsk7sPBB4T1c9OZ2XZUw-39" value="蜂窝" style="rounded=0;whiteSpace=wrap;html=1;fontSize=10;" parent="1" vertex="1">
          <mxGeometry x="305.63" y="663.5" width="51.25" height="35" as="geometry" />
        </mxCell>
        <mxCell id="zsk7sPBB4T1c9OZ2XZUw-41" value="陪拜访" style="rounded=0;whiteSpace=wrap;html=1;fontSize=10;" parent="1" vertex="1">
          <mxGeometry x="371.26" y="621.5" width="51.25" height="35" as="geometry" />
        </mxCell>
        <mxCell id="zsk7sPBB4T1c9OZ2XZUw-42" value="任务" style="rounded=0;whiteSpace=wrap;html=1;fontSize=10;" parent="1" vertex="1">
          <mxGeometry x="179.38" y="663.5" width="51.25" height="35" as="geometry" />
        </mxCell>
        <mxCell id="zsk7sPBB4T1c9OZ2XZUw-43" value="佣金" style="rounded=0;whiteSpace=wrap;html=1;fontSize=10;" parent="1" vertex="1">
          <mxGeometry x="240.01" y="663.5" width="51.25" height="35" as="geometry" />
        </mxCell>
        <mxCell id="zsk7sPBB4T1c9OZ2XZUw-44" value="目标" style="rounded=0;whiteSpace=wrap;html=1;fontSize=10;" parent="1" vertex="1">
          <mxGeometry x="371.26" y="663.5" width="51.25" height="35" as="geometry" />
        </mxCell>
        <mxCell id="zsk7sPBB4T1c9OZ2XZUw-46" value="" style="shape=flexArrow;endArrow=classic;html=1;rounded=0;" parent="1" edge="1">
          <mxGeometry width="50" height="50" relative="1" as="geometry">
            <mxPoint x="250.63" y="530" as="sourcePoint" />
            <mxPoint x="250" y="570" as="targetPoint" />
          </mxGeometry>
        </mxCell>
        <mxCell id="zsk7sPBB4T1c9OZ2XZUw-47" value="支撑域" style="rounded=0;whiteSpace=wrap;html=1;dashed=1;dashPattern=8 8;fontSize=10;verticalAlign=top;" parent="1" vertex="1">
          <mxGeometry x="466.26" y="600" width="133.74" height="120" as="geometry" />
        </mxCell>
        <mxCell id="zsk7sPBB4T1c9OZ2XZUw-48" value="订单域" style="rounded=0;whiteSpace=wrap;html=1;fontSize=10;" parent="1" vertex="1">
          <mxGeometry x="477.5" y="621.5" width="51.25" height="35" as="geometry" />
        </mxCell>
        <mxCell id="zsk7sPBB4T1c9OZ2XZUw-49" value="售后域" style="rounded=0;whiteSpace=wrap;html=1;fontSize=10;" parent="1" vertex="1">
          <mxGeometry x="537.5" y="621.5" width="51.25" height="35" as="geometry" />
        </mxCell>
        <mxCell id="zsk7sPBB4T1c9OZ2XZUw-50" value="履约域" style="rounded=0;whiteSpace=wrap;html=1;fontSize=10;" parent="1" vertex="1">
          <mxGeometry x="537.5" y="663.5" width="51.25" height="35" as="geometry" />
        </mxCell>
        <mxCell id="zsk7sPBB4T1c9OZ2XZUw-53" value="促销域" style="rounded=0;whiteSpace=wrap;html=1;fontSize=10;" parent="1" vertex="1">
          <mxGeometry x="477.5" y="663.5" width="51.25" height="35" as="geometry" />
        </mxCell>
        <mxCell id="zsk7sPBB4T1c9OZ2XZUw-54" value="通用域" style="rounded=0;whiteSpace=wrap;html=1;dashed=1;dashPattern=8 8;fontSize=10;verticalAlign=top;" parent="1" vertex="1">
          <mxGeometry x="624.39" y="600" width="133.74" height="120" as="geometry" />
        </mxCell>
        <mxCell id="zsk7sPBB4T1c9OZ2XZUw-55" value="数据分析" style="rounded=0;whiteSpace=wrap;html=1;fontSize=10;" parent="1" vertex="1">
          <mxGeometry x="665.63" y="642.5" width="51.25" height="35" as="geometry" />
        </mxCell>
        <mxCell id="zsk7sPBB4T1c9OZ2XZUw-59" value="" style="shape=flexArrow;endArrow=classic;html=1;rounded=0;" parent="1" edge="1">
          <mxGeometry width="50" height="50" relative="1" as="geometry">
            <mxPoint x="520.75" y="530" as="sourcePoint" />
            <mxPoint x="520.12" y="570" as="targetPoint" />
          </mxGeometry>
        </mxCell>
        <mxCell id="zsk7sPBB4T1c9OZ2XZUw-60" value="" style="shape=flexArrow;endArrow=classic;html=1;rounded=0;" parent="1" edge="1">
          <mxGeometry width="50" height="50" relative="1" as="geometry">
            <mxPoint x="691.39" y="530" as="sourcePoint" />
            <mxPoint x="690.76" y="570" as="targetPoint" />
          </mxGeometry>
        </mxCell>
        <mxCell id="rPZRAobuwSdeYnjbMxWm-1" value="门店商机" style="rounded=0;whiteSpace=wrap;html=1;fontSize=10;" vertex="1" parent="1">
          <mxGeometry x="477.5" y="410" width="62.5" height="30" as="geometry" />
        </mxCell>
        <mxCell id="rPZRAobuwSdeYnjbMxWm-3" value="Mysql" style="rounded=0;whiteSpace=wrap;html=1;fontSize=10;" vertex="1" parent="1">
          <mxGeometry x="294.13" y="790" width="53.74" height="30" as="geometry" />
        </mxCell>
        <mxCell id="rPZRAobuwSdeYnjbMxWm-4" value="Redis" style="rounded=0;whiteSpace=wrap;html=1;fontSize=10;" vertex="1" parent="1">
          <mxGeometry x="359.75" y="790" width="53.74" height="30" as="geometry" />
        </mxCell>
        <mxCell id="rPZRAobuwSdeYnjbMxWm-5" value="RabbitMQ" style="rounded=0;whiteSpace=wrap;html=1;fontSize=10;" vertex="1" parent="1">
          <mxGeometry x="423.76" y="790" width="53.74" height="30" as="geometry" />
        </mxCell>
        <mxCell id="rPZRAobuwSdeYnjbMxWm-6" value="kafka" style="rounded=0;whiteSpace=wrap;html=1;fontSize=10;" vertex="1" parent="1">
          <mxGeometry x="486.26" y="790" width="53.74" height="30" as="geometry" />
        </mxCell>
        <mxCell id="rPZRAobuwSdeYnjbMxWm-7" value="clickhouse" style="rounded=0;whiteSpace=wrap;html=1;fontSize=10;" vertex="1" parent="1">
          <mxGeometry x="546.26" y="790" width="53.74" height="30" as="geometry" />
        </mxCell>
        <mxCell id="rPZRAobuwSdeYnjbMxWm-8" value="xxl-job" style="rounded=0;whiteSpace=wrap;html=1;fontSize=10;" vertex="1" parent="1">
          <mxGeometry x="607.52" y="790" width="53.74" height="30" as="geometry" />
        </mxCell>
        <mxCell id="rPZRAobuwSdeYnjbMxWm-9" value="数据引擎" style="rounded=0;whiteSpace=wrap;html=1;fontSize=10;" vertex="1" parent="1">
          <mxGeometry x="674.39" y="790" width="53.74" height="30" as="geometry" />
        </mxCell>
      </root>
    </mxGraphModel>
  </diagram>
</mxfile>
